HIERARCHY
ROOT hip
{
  OFFSET 0 0 0
  CHANNELS 6 Xposition Yposition Zposition Zrotation Yrotation Xrotation
  JOINT abdomen
  {
    OFFSET 0 20.6881 -0.73152
    CHANNELS 3 Zrotation Xrotation Yrotation
    JOINT chest
    {
      OFFSET 0 11.7043 -0.48768
      CHANNELS 3 Zrotation Xrotation Yrotation
      JOINT neck
      {
        OFFSET 0 22.1894 -2.19456
        CHANNELS 3 Zrotation Xrotation Yrotation
        JOINT head
        {
          OFFSET -0.24384 7.07133 1.2192
          CHANNELS 3 Zrotation Xrotation Yrotation
          JOINT leftEye
          {
            OFFSET 4.14528 8.04674 8.04672
            CHANNELS 3 Zrotation Xrotation Yrotation
            End Site
            {
              OFFSET 1 0 0
            }
          }
          JOINT rightEye
          {
            OFFSET -3.6576 8.04674 8.04672
            CHANNELS 3 Zrotation Xrotation Yrotation
            End Site
            {
              OFFSET 1 0 0
            }
          }
        }
      }
      JOINT rCollar
      {
        OFFSET -2.68224 19.2634 -4.8768
        CHANNELS 3 Zrotation Xrotation Yrotation
        JOINT rShldr
        {
          OFFSET -8.77824 -1.95073 1.46304
          CHANNELS 3 Zrotation Xrotation Yrotation
          JOINT rForeArm
          {
            OFFSET -28.1742 -1.7115 0.48768
            CHANNELS 3 Zrotation Xrotation Yrotation
            JOINT rHand
            {
              OFFSET -22.5879 0.773209 7.07136
              CHANNELS 3 Zrotation Xrotation Yrotation
              JOINT rThumb1
              {
                OFFSET -1.2192 -0.487915 3.41376
                CHANNELS 3 Zrotation Xrotation Yrotation
                JOINT rThumb2
                {
                  OFFSET -3.37035 -0.52449 3.41376
                  CHANNELS 3 Zrotation Xrotation Yrotation
                  End Site
                  {
                    OFFSET -1.78271 -1.18214 1.43049
                  }
                }
              }
              JOINT rIndex1
              {
                OFFSET -7.75947 0.938293 5.60832
                CHANNELS 3 Zrotation Xrotation Yrotation
                JOINT rIndex2
                {
                  OFFSET -2.54057 -0.884171 1.56538
                  CHANNELS 3 Zrotation Xrotation Yrotation
                  End Site
                  {
                    OFFSET -1.62519 -0.234802 1.16502
                  }
                }
              }
              JOINT rMid1
              {
                OFFSET -8.24714 1.18213 3.41376
                CHANNELS 3 Zrotation Xrotation Yrotation
                JOINT rMid2
                {
                  OFFSET -3.10165 -0.590103 1.0647
                  CHANNELS 3 Zrotation Xrotation Yrotation
                  End Site
                  {
                    OFFSET -2.48547 -0.328903 0.83742
                  }
                }
              }
              JOINT rRing1
              {
                OFFSET -8.82822 0.546677 1.51678
                CHANNELS 3 Zrotation Xrotation Yrotation
                JOINT rRing2
                {
                  OFFSET -2.60934 -0.819778 -0.0198488
                  CHANNELS 3 Zrotation Xrotation Yrotation
                  End Site
                  {
                    OFFSET -2.33842 -0.294052 0.168128
                  }
                }
              }
              JOINT rPinky1
              {
                OFFSET -8.27202 -0.0477905 -0.4584
                CHANNELS 3 Zrotation Xrotation Yrotation
                JOINT rPinky2
                {
                  OFFSET -1.82734 -0.647385 -0.700984
                  CHANNELS 3 Zrotation Xrotation Yrotation
                  End Site
                  {
                    OFFSET -1.69225 -0.51767 -0.607171
                  }
                }
              }
            }
          }
        }
      }
      JOINT lCollar
      {
        OFFSET 2.68224 19.2634 -4.8768
        CHANNELS 3 Zrotation Xrotation Yrotation
        JOINT lShldr
        {
          OFFSET 8.77824 -1.95073 1.46304
          CHANNELS 3 Zrotation Xrotation Yrotation
          JOINT lForeArm
          {
            OFFSET 28.1742 -1.7115 0.48768
            CHANNELS 3 Zrotation Xrotation Yrotation
            JOINT lHand
            {
              OFFSET 22.5879 0.773209 7.07136
              CHANNELS 3 Zrotation Xrotation Yrotation
              JOINT lThumb1
              {
                OFFSET 1.2192 -0.487915 3.41376
                CHANNELS 3 Zrotation Xrotation Yrotation
                JOINT lThumb2
                {
                  OFFSET 3.37035 -0.52449 3.41376
                  CHANNELS 3 Zrotation Xrotation Yrotation
                  End Site
                  {
                    OFFSET 1.78271 -1.18214 1.43049
                  }
                }
              }
              JOINT lIndex1
              {
                OFFSET 7.75947 0.938293 5.60832
                CHANNELS 3 Zrotation Xrotation Yrotation
                JOINT lIndex2
                {
                  OFFSET 2.54057 -0.884171 1.56538
                  CHANNELS 3 Zrotation Xrotation Yrotation
                  End Site
                  {
                    OFFSET 1.62519 -0.234802 1.16502
                  }
                }
              }
              JOINT lMid1
              {
                OFFSET 8.24714 1.18213 3.41376
                CHANNELS 3 Zrotation Xrotation Yrotation
                JOINT lMid2
                {
                  OFFSET 3.10165 -0.590103 1.0647
                  CHANNELS 3 Zrotation Xrotation Yrotation
                  End Site
                  {
                    OFFSET 2.48547 -0.328903 0.83742
                  }
                }
              }
              JOINT lRing1
              {
                OFFSET 8.82822 0.546677 1.51678
                CHANNELS 3 Zrotation Xrotation Yrotation
                JOINT lRing2
                {
                  OFFSET 2.60934 -0.819778 -0.0198488
                  CHANNELS 3 Zrotation Xrotation Yrotation
                  End Site
                  {
                    OFFSET 2.33842 -0.294052 0.168128
                  }
                }
              }
              JOINT lPinky1
              {
                OFFSET 8.27202 -0.0477905 -0.4584
                CHANNELS 3 Zrotation Xrotation Yrotation
                JOINT lPinky2
                {
                  OFFSET 1.82734 -0.647385 -0.700984
                  CHANNELS 3 Zrotation Xrotation Yrotation
                  End Site
                  {
                    OFFSET 1.69225 -0.51767 -0.607171
                  }
                }
              }
            }
          }
        }
      }
    }
  }
  JOINT rButtock
  {
    OFFSET -8.77824 4.35084 1.2192
    CHANNELS 3 Zrotation Xrotation Yrotation
    JOINT rThigh
    {
      OFFSET 0 -1.70687 -2.19456
      CHANNELS 3 Zrotation Xrotation Yrotation
      JOINT rShin
      {
        OFFSET 0 -36.8199 0.73152
        CHANNELS 3 Zrotation Xrotation Yrotation
        JOINT rFoot
        {
          OFFSET 0.73152 -45.1104 -5.12064
          CHANNELS 3 Zrotation Xrotation Yrotation
          End Site
          {
            OFFSET -1.1221 -3.69964 12.103
          }
        }
      }
    }
  }
  JOINT lButtock
  {
    OFFSET 8.77824 4.35084 1.2192
    CHANNELS 3 Zrotation Xrotation Yrotation
    JOINT lThigh
    {
      OFFSET 0 -1.70687 -2.19456
      CHANNELS 3 Zrotation Xrotation Yrotation
      JOINT lShin
      {
        OFFSET 0 -36.8199 0.73152
        CHANNELS 3 Zrotation Xrotation Yrotation
        JOINT lFoot
        {
          OFFSET -0.73152 -45.1104 -5.12064
          CHANNELS 3 Zrotation Xrotation Yrotation
          End Site
          {
            OFFSET 1.1221 -3.69964 12.103
          }
        }
      }
    }
  }
}
MOTION
Frames:	7
Frame Time:	0.00833333
-3.68307 84.7714 28.4402 0.3669 0.396 15.3489 3.4321 30.1811 -1.60951 2.29185 -13.5175 0.0878864 -4.62858 -10.0255 -2.63442 2.99686 -10.7359 -2.92184 -0.0 0.0 0.0 -0.0 0.0 0.0 2.33943e-14 3.41929e-14 -1.9279e-14 2.77383 -30.2709 64.5789 -16.2366 -8.90879 30.1736 -2.75238 41.7571 7.2078 -3.58227e-10 -3.89124e-10 1.76748e-13 -6.1856e-10 -6.34723e-10 1.25249e-11 -3.58227e-10 -3.89126e-10 1.64174e-13 7.73091 5.47488 0.417314 -3.58232e-10 -3.89107e-10 1.76748e-13 2.90554 0.965183 0.102902 -3.58222e-10 -3.89121e-10 1.77552e-13 10.2786 0.731801 0.0259123 -3.58231e-10 -3.89113e-10 1.88627e-13 2.22167 -0.733487 -0.20892 2.33216e-14 3.41886e-14 -1.94561e-14 -23.7427 -31.0625 -78.2123 13.1 -6.25067 -23.7602 4.34666 49.3934 -9.43515 -7.89504e-11 -4.19754e-09 4.06742e-10 -1.18373e-10 -7.31075e-09 7.02697e-10 -7.89504e-11 -4.19753e-09 4.06749e-10 -7.73091 5.47488 -0.417314 -7.89467e-11 -4.19753e-09 4.06737e-10 -2.90554 0.965183 -0.102902 -7.89532e-11 -4.19753e-09 4.06736e-10 -10.2786 0.731801 -0.0259123 -7.8946e-11 -4.19753e-09 4.06722e-10 -2.22167 -0.733487 0.20892 -2.03217e-16 0.0 -3.88251e-19 -8.52059 -14.4528 0.150111 0.0445271 -0.396511 0.00545222 -3.06375 -8.93724 -14.3187 2.03217e-16 0.0 3.88251e-19 6.52279 -25.6399 -5.43388 0.0460715 19.3509 -0.416545 3.39949 -10.7225 13.9977
-3.70582 84.7739 28.5387 0.3397 0.3558 15.4148 3.41857 29.8385 -1.64447 2.41579 -13.6837 0.0920498 -4.76363 -9.49879 -2.62028 3.11602 -10.9597 -2.85602 -0.0 0.0 0.0 -0.0 0.0 0.0 1.17734e-14 -4.05048e-14 4.97078e-15 1.74817 -30.107 62.7033 -16.2218 -8.89491 30.1422 -2.73649 41.6631 7.18392 3.10851e-10 1.95156e-09 5.70562e-10 5.55297e-10 3.20696e-09 9.72023e-10 3.10852e-10 1.95156e-09 5.70549e-10 7.73091 5.47488 0.417314 3.10847e-10 1.95158e-09 5.70562e-10 2.90554 0.965183 0.102902 3.1086e-10 1.95157e-09 5.70561e-10 10.2786 0.731801 0.0259123 3.10847e-10 1.95158e-09 5.70575e-10 2.22167 -0.733487 -0.20892 1.17212e-14 -4.04999e-14 4.78092e-15 -22.568 -31.301 -75.8005 13.1421 -6.28264 -23.8434 4.27387 49.1052 -9.33896 -6.84705e-10 -5.80219e-10 -2.36841e-10 -1.18788e-09 -1.26331e-09 -3.79893e-10 -6.84704e-10 -5.80212e-10 -2.36833e-10 -7.73091 5.47488 -0.417314 -6.847e-10 -5.8021e-10 -2.36848e-10 -2.90554 0.965183 -0.102902 -6.84706e-10 -5.80213e-10 -2.36848e-10 -10.2786 0.731801 -0.0259123 -6.847e-10 -5.80201e-10 -2.36863e-10 -2.22167 -0.733487 0.20892 -2.03217e-16 0.0 -3.88251e-19 -8.4656 -14.4713 0.195962 0.044799 -0.403263 0.00537328 -3.06365 -8.94614 -14.3025 2.03217e-16 0.0 3.88251e-19 6.52864 -25.6248 -5.61901 0.0454798 19.3375 -0.418502 3.48426 -10.8596 14.2008
-3.71489 84.7775 28.6423 0.3759 0.3122 15.4404 3.40119 29.5564 -1.64589 2.47044 -13.7726 0.0959631 -4.8276 -9.18011 -2.61329 3.16663 -11.0501 -2.82985 -0.0 0.0 0.0 -0.0 0.0 0.0 1.60665e-15 -9.22415e-14 2.15681e-14 0.799897 -29.9875 60.7934 -16.2038 -8.87791 30.1038 -2.72548 41.5976 7.16732 7.84649e-10 2.92006e-09 9.06617e-10 1.38421e-09 4.75063e-09 1.53463e-09 7.84652e-10 2.92005e-09 9.06604e-10 7.73091 5.47488 0.417314 7.84647e-10 2.92007e-09 9.06617e-10 2.90554 0.965183 0.102902 7.84661e-10 2.92006e-09 9.06616e-10 10.2786 0.731801 0.0259123 7.84645e-10 2.92007e-09 9.0663e-10 2.22167 -0.733487 -0.20892 1.57394e-15 -9.22303e-14 2.13694e-14 -21.6227 -31.5367 -73.6236 13.1588 -6.29533 -23.8764 4.25264 49.0206 -9.31087 -1.07501e-09 1.5763e-09 -6.61476e-10 -1.87745e-09 2.3322e-09 -1.09449e-09 -1.07501e-09 1.5763e-09 -6.61466e-10 -7.73091 5.47488 -0.417314 -1.07501e-09 1.5763e-09 -6.61482e-10 -2.90554 0.965183 -0.102902 -1.07501e-09 1.5763e-09 -6.61482e-10 -10.2786 0.731801 -0.0259123 -1.075e-09 1.57632e-09 -6.61498e-10 -2.22167 -0.733487 0.20892 -2.03217e-16 0.0 -3.88251e-19 -8.42094 -14.4592 0.239071 0.0450405 -0.408534 0.00531952 -3.06305 -8.95827 -14.2819 2.03217e-16 0.0 3.88251e-19 6.53899 -25.5832 -5.73757 0.0451877 19.3239 -0.420089 3.54504 -10.9655 14.337
-3.73152 84.7795 28.7417 0.4081 0.2675 15.4609 3.38213 29.3693 -1.60012 2.42215 -13.7495 0.0991836 -4.79261 -9.19822 -2.62178 3.12603 -10.9259 -2.86741 -0.0 0.0 0.0 -0.0 0.0 0.0 -7.51875e-15 -1.11947e-13 2.75119e-14 -0.0542336 -29.9768 58.8224 -16.1804 -8.85593 30.0543 -2.71762 41.5505 7.15544 1.00227e-09 1.69067e-09 8.97802e-10 1.75933e-09 2.59886e-09 1.51208e-09 1.00228e-09 1.69066e-09 8.97787e-10 7.73091 5.47488 0.417314 1.00227e-09 1.69068e-09 8.978e-10 2.90554 0.965183 0.102902 1.00228e-09 1.69068e-09 8.97799e-10 10.2786 0.731801 0.0259123 1.00227e-09 1.69069e-09 8.97811e-10 2.22167 -0.733487 -0.20892 -7.52734e-15 -1.11933e-13 2.73119e-14 -21.0352 -31.898 -71.8409 13.1407 -6.2816 -23.8406 4.30791 49.2424 -9.38425 -1.16361e-09 1.57448e-09 -7.85324e-10 -2.03531e-09 2.2958e-09 -1.30376e-09 -1.16361e-09 1.57448e-09 -7.85313e-10 -7.73091 5.47488 -0.417314 -1.16361e-09 1.57448e-09 -7.85329e-10 -2.90554 0.965183 -0.102902 -1.16361e-09 1.57448e-09 -7.85329e-10 -10.2786 0.731801 -0.0259123 -1.16361e-09 1.57449e-09 -7.85344e-10 -2.22167 -0.733487 0.20892 -2.03217e-16 0.0 -3.88251e-19 -8.38972 -14.4042 0.274986 0.0452511 -0.411747 0.00528985 -3.0613 -8.97604 -14.2522 2.03217e-16 0.0 3.88251e-19 6.55919 -25.5059 -5.75892 0.0453829 19.3089 -0.421222 3.56786 -11.0244 14.3707
-3.75286 84.7814 28.8459 0.395 0.2067 15.4466 3.36256 29.2357 -1.53362 2.32191 -13.6613 0.101107 -4.71066 -9.3921 -2.6372 3.03771 -10.6947 -2.93384 -0.0 0.0 0.0 -0.0 0.0 0.0 -1.77039e-14 -1.15501e-13 2.79758e-14 -0.85589 -29.9964 56.7991 -16.155 -8.83203 30.0004 -2.71194 41.5163 7.14683 1.09798e-09 -8.43203e-10 6.98378e-10 1.91761e-09 -1.75125e-09 1.16548e-09 1.09798e-09 -8.43214e-10 6.98359e-10 7.73091 5.47488 0.417314 1.09798e-09 -8.43201e-10 6.98373e-10 2.90554 0.965183 0.102902 1.09799e-09 -8.43199e-10 6.98374e-10 10.2786 0.731801 0.0259123 1.09797e-09 -8.43193e-10 6.98382e-10 2.22167 -0.733487 -0.20892 -1.7681e-14 -1.15486e-13 2.77802e-14 -20.6693 -32.3467 -70.2618 13.1033 -6.25321 -23.7667 4.4122 49.6511 -9.52172 -1.08524e-09 4.23362e-10 -7.57051e-10 -1.89955e-09 3.28254e-10 -1.25804e-09 -1.08525e-09 4.23356e-10 -7.57039e-10 -7.73091 5.47488 -0.417314 -1.08524e-09 4.23356e-10 -7.57055e-10 -2.90554 0.965183 -0.102902 -1.08525e-09 4.23357e-10 -7.57054e-10 -10.2786 0.731801 -0.0259123 -1.08524e-09 4.23371e-10 -7.57068e-10 -2.22167 -0.733487 0.20892 -2.03217e-16 0.0 -3.88251e-19 -8.36899 -14.3234 0.305717 0.0454287 -0.413486 0.0052742 -3.05864 -8.99405 -14.2196 2.03217e-16 0.0 3.88251e-19 6.58371 -25.4084 -5.71201 0.0459307 19.2945 -0.422095 3.56475 -11.0511 14.3352
-3.76898 84.7839 28.9608 0.3761 0.1819 15.3935 3.33825 29.1088 -1.45793 2.20712 -13.5506 0.103168 -4.60508 -9.5929 -2.64678 2.9197 -10.4584 -3.00111 -0.0 0.0 0.0 -0.0 0.0 0.0 -2.64443e-14 -1.11401e-13 2.58323e-14 -1.62947 -29.9655 54.7542 -16.1295 -8.80805 29.9464 -2.71283 41.5215 7.14817 1.10808e-09 -3.49383e-09 4.41367e-10 1.92622e-09 -6.27831e-09 7.226e-10 1.10809e-09 -3.49385e-09 4.41345e-10 7.73091 5.47488 0.417314 1.10808e-09 -3.49384e-09 4.41359e-10 2.90554 0.965183 0.102902 1.10809e-09 -3.49383e-09 4.41362e-10 10.2786 0.731801 0.0259123 1.10808e-09 -3.49383e-09 4.41365e-10 2.22167 -0.733487 -0.20892 -2.6397e-14 -1.11387e-13 2.56393e-14 -20.3205 -32.7996 -68.7043 13.0561 -6.21745 -23.6735 4.53156 50.1047 -9.67764 -9.32929e-10 -1.06438e-09 -6.49294e-10 -1.63312e-09 -2.19108e-09 -1.07857e-09 -9.32939e-10 -1.06439e-09 -6.49281e-10 -7.73091 5.47488 -0.417314 -9.3293e-10 -1.06439e-09 -6.49295e-10 -2.90554 0.965183 -0.102902 -9.32936e-10 -1.06439e-09 -6.49294e-10 -10.2786 0.731801 -0.0259123 -9.32926e-10 -1.06438e-09 -6.49307e-10 -2.22167 -0.733487 0.20892 -2.03217e-16 0.0 -3.88251e-19 -8.35419 -14.2318 0.339721 0.0455764 -0.414612 0.00528255 -3.05632 -9.01095 -14.1899 2.03217e-16 0.0 3.88251e-19 6.6043 -25.3007 -5.64424 0.0465108 19.2823 -0.422756 3.55631 -11.0708 14.2856
-3.77847 84.7853 29.0735 0.3585 0.198 15.3726 3.3051 28.9419 -1.38467 2.11514 -13.4601 0.1068 -4.49892 -9.63178 -2.63761 2.7892 -10.3189 -3.04126 -0.0 0.0 0.0 -0.0 0.0 0.0 -3.12354e-14 -1.08145e-13 2.39536e-14 -2.38956 -29.8037 52.7289 -16.1058 -8.78588 29.8963 -2.72473 41.5931 7.1662 1.06892e-09 -5.07347e-09 2.59791e-10 1.85236e-09 -8.9609e-09 4.11228e-10 1.06892e-09 -5.07349e-09 2.59769e-10 7.73091 5.47488 0.417314 1.06892e-09 -5.07348e-09 2.59781e-10 2.90554 0.965183 0.102902 1.06892e-09 -5.07347e-09 2.59787e-10 10.2786 0.731801 0.0259123 1.06891e-09 -5.07347e-09 2.59788e-10 2.22167 -0.733487 -0.20892 -3.11851e-14 -1.08131e-13 2.37548e-14 -19.7912 -33.1402 -66.9815 13.0086 -6.18166 -23.5798 4.62804 50.4616 -9.80275 -7.99685e-10 -2.07608e-09 -5.34686e-10 -1.39897e-09 -3.88286e-09 -8.86579e-10 -7.99697e-10 -2.0761e-09 -5.34674e-10 -7.73091 5.47488 -0.417314 -7.99687e-10 -2.0761e-09 -5.34686e-10 -2.90554 0.965183 -0.102902 -7.99695e-10 -2.0761e-09 -5.34685e-10 -10.2786 0.731801 -0.0259123 -7.99682e-10 -2.07609e-09 -5.34696e-10 -2.22167 -0.733487 0.20892 -2.03217e-16 0.0 -3.88251e-19 -8.34077 -14.1448 0.38545 0.0456975 -0.415986 0.00532487 -3.05559 -9.02534 -14.169 2.03217e-16 0.0 3.88251e-19 6.61311 -25.1928 -5.60287 0.0468028 19.2734 -0.423252 3.56319 -11.1087 14.2768
